<svg xmlns="http://www.w3.org/2000/svg" xmlns:xlink="http://www.w3.org/1999/xlink" id="Layer_1" x="0px" y="0px" viewBox="0 0 520.8 42.5" style="enable-background:new 0 0 520.8 42.5;" xml:space="preserve"><style type="text/css">	.st0{fill:#FFFFFF;}	.st1{fill:none;}</style><g>	<polygon class="st0" points="79.3,42.5 74.7,42.5 60,10.2 45.3,42.5 40.8,42.5 57.7,5.2 60,0.2 62.3,5.2  "></polygon></g><g>	<polygon class="st0" points="217.1,42.5 212.5,42.5 197.8,10.2 183.2,42.5 178.6,42.5 195.5,5.2 197.8,0.2 200.1,5.2  "></polygon></g><g>	<polygon class="st0" points="0,0.2 4.6,0.2 19.2,32.4 33.9,0.2 38.5,0.2 21.5,37.4 19.2,42.5 17,37.4  "></polygon></g><g>	<polygon class="st0" points="127.8,0.1 127.8,42.5 123.7,37.8 99.8,11.1 99.8,42.4 95.6,42.4 95.6,0.2 99.8,4.8 123.7,31.5   123.7,0.1  "></polygon></g><g>	<polygon class="st0" points="171.1,0.2 171.1,4.4 160.1,4.4 160.1,42.5 155.9,42.5 155.9,4.4 144.9,4.4 144.9,0.2  "></polygon></g><g>	<g>		<path class="st0" d="M282.5,30.7c0,6.4-5.9,11.7-13.1,11.7c-4.9,0-9.1-2.4-11.4-5.9l3.6-2.1c1.5,2.3,4.4,3.8,7.7,3.8   c4.9,0,8.9-3.4,8.9-7.5c0-3.7-3.4-6.7-7.9-7.4c-0.2,0-0.2,0-0.4,0c-0.2,0-0.5-0.1-0.7-0.1c-6.5-1-11.2-5.8-11.2-11.5   c0-6.4,5.9-11.7,13.1-11.7c4.9,0,9.1,2.4,11.4,5.9L278.9,8c-1.5-2.3-4.4-3.8-7.7-3.8c-4.9,0-8.9,3.4-8.9,7.5c0,3.7,3.4,6.7,8,7.4   c0.1,0,0,0,0.1,0c0.1,0,0.3,0,0.5,0.1c0.1,0,0.2,0,0.4,0.1C277.8,20.2,282.5,24.9,282.5,30.7z"></path>	</g></g><g>	<path class="st0" d="M350.7,42.5c-7.2,0-13.1-5.2-13.1-11.7V0.1h4.2v30.7c0,4.1,4,7.5,8.9,7.5c4.9,0,8.9-3.4,8.9-7.5V0.1h4.2v30.7  C363.7,37.3,357.9,42.5,350.7,42.5z"></path></g><g>	<polygon class="st0" points="322.3,0.1 322.3,4.3 311.3,4.3 311.3,42.4 307.1,42.4 307.1,4.3 296.1,4.3 296.1,0.1  "></polygon></g><g>	<path class="st0" d="M386,0.1L386,0.1l-4.2,0v42.4h4.2v0c12.2,0,22.2-9.5,22.2-21.2C408.1,9.6,398.2,0.1,386,0.1z M386,38.3v-34  c9.9,0,18,7.6,18,17S395.9,38.3,386,38.3z"></path></g><g>	<rect x="422.8" y="0.1" class="st0" width="4.2" height="42.4"></rect></g><g>	<g>		<path class="st1" d="M270,23.2c-0.4,0-0.3,0-0.7-0.1"></path>	</g></g><g>	<g>		<path class="st0" d="M520.8,30.7c0,6.4-5.9,11.7-13.1,11.7c-4.9,0-9.1-2.4-11.4-5.9l3.6-2.1c1.5,2.3,4.4,3.8,7.7,3.8   c4.9,0,8.9-3.4,8.9-7.5c0-3.7-3.4-6.7-7.9-7.4c-0.2,0-0.2,0-0.4,0c-0.2,0-0.5-0.1-0.7-0.1c-6.5-1-11.2-5.8-11.2-11.5   c0-6.4,5.9-11.7,13.1-11.7c4.9,0,9.1,2.4,11.4,5.9L517.2,8c-1.5-2.3-4.4-3.8-7.7-3.8c-4.9,0-8.9,3.4-8.9,7.5c0,3.7,3.4,6.7,8,7.4   c0.1,0,0,0,0.1,0c0.1,0,0.3,0,0.5,0.1c0.1,0,0.2,0,0.4,0.1C516.1,20.2,520.8,24.9,520.8,30.7z"></path>	</g></g><g>	<g>		<path class="st1" d="M508.3,23.2c-0.4,0-0.3,0-0.7-0.1"></path>	</g></g><g>	<path class="st0" d="M462.9,42.5c-11.7,0-21.2-9.5-21.2-21.2s9.5-21.2,21.2-21.2s21.2,9.5,21.2,21.2S474.6,42.5,462.9,42.5z   M462.9,4.3c-9.4,0-17,7.6-17,17s7.6,17,17,17s17-7.6,17-17S472.2,4.3,462.9,4.3z"></path></g></svg>