<svg xmlns="http://www.w3.org/2000/svg" xmlns:xlink="http://www.w3.org/1999/xlink" id="Layer_1" x="0px" y="0px" viewBox="0 0 175.7 23" style="enable-background:new 0 0 175.7 23;" xml:space="preserve"><style type="text/css">	.st0{fill-rule:evenodd;clip-rule:evenodd;fill:#FFFFFF;}</style><g>	<path class="st0" d="M61.9,9.5c0.6,0.4,1.5,0.5,2.4,0.5c1,0,1.8-0.2,2.4-0.5c0.7-0.3,1-0.8,1-1.2c0-0.5-0.3-0.9-1-1.2  c-0.7-0.4-1.5-0.5-2.4-0.5c-1,0-1.8,0.1-2.4,0.5c-0.7,0.3-1,0.7-1,1.2C60.9,8.8,61.2,9.2,61.9,9.5L61.9,9.5z"></path>	<path class="st0" d="M110.9,9.5c0.6,0.3,1.5,0.5,2.4,0.5c0.9,0,1.8-0.2,2.4-0.5c0.7-0.4,1-0.8,1-1.2c0-0.5-0.3-0.9-1-1.3  c-0.7-0.3-1.5-0.5-2.4-0.5c-1,0-1.8,0.2-2.4,0.5c-0.7,0.3-1,0.7-1,1.3C109.9,8.7,110.2,9.1,110.9,9.5L110.9,9.5z"></path>	<path class="st0" d="M174,19c0,0-41.7,0-42,0c-8.8-1.1-9.6-4.9-9.9-6.3c0,0,0,0,0,0c0-0.1,0-0.8,0-1.1c0,0,0-0.1,0-0.1  c0.8-4.1,4-6.4,9.8-7c0.2,0,42,0,42,0c1,0,1.8-0.8,1.8-1.8c0-1-0.8-1.8-1.8-1.8h-42.1c-0.1,0-0.1,0-0.2,0c-9.4,1-12.2,5.9-13,9.9  c-0.1,0.2-0.1,0.4-0.1,0.7l0.1,1.6c0,0.1,0,0.1,0,0.1c0.3,1.6,0.9,3,1.8,4.2l-7.9-4.4L89.9,0.5c-0.6-0.5-1.4-0.6-2-0.2L57.5,18V2.1  c0-1-0.8-1.8-1.8-1.8c-0.2,0-0.3,0-0.5,0.1c-0.2,0-0.5,0.1-0.7,0.2l-26.9,13c-0.1,0.1-0.2,0.1-0.3,0.2l-2.9,1.4l3.1,1.6  c0.3,0.1,0.5,0.2,0.8,0.2c0.3,0,0.6,0,0.9-0.2L54,4.8v16c0,0.5,0.2,1,0.6,1.3c0.6,0.7,1.5,0.8,2.3,0.4l10.7-6.2c0,0,0,0,0.1,0  l6-3.6h0l15.1-8.8l15.9,8.8H76.7l-6.1,3.6h40.5l11.6,6.5c0.9,0.5,2,0.2,2.4-0.7c0.2-0.3,0.3-0.7,0.2-1.1c1.8,0.7,3.9,1.2,6.3,1.5  c0.1,0,0.1,0,0.2,0H174c1,0,1.8-0.8,1.8-1.8C175.7,19.8,174.9,19,174,19L174,19z"></path>	<path class="st0" d="M2.7,0.2C1.8-0.3,0.7,0.1,0.3,1C0.1,1.2,0.1,1.5,0.1,1.7C0,1.9,0,2.1,0,2.2v18.7c0,1,0.8,1.8,1.8,1.8  c1,0,1.8-0.8,1.8-1.8V4.7l19.1,9.7l4-2L2.7,0.2L2.7,0.2z"></path></g></svg>