<svg xmlns="http://www.w3.org/2000/svg" xmlns:xlink="http://www.w3.org/1999/xlink" id="Layer_1" x="0px" y="0px" viewBox="0 0 585 203.9" style="enable-background:new 0 0 585 203.9;" xml:space="preserve"><style type="text/css">	.st0{fill:#FFFFFF;}</style><path class="st0" d="M190.8,199.2c-27.8,0-55,0-82.8,0c0-27.5,0-54.7,0-82.4c-8.3,0-16.2,0-24.5,0c0,27.4,0,54.6,0,82.3 c-27.9,0-55.3,0-83.4,0c0-2.1,0-4.1,0-6c0-62.2,0-124.3-0.1-186.5C0,1.8,0.9-0.1,6.3,0c23.7,0.3,47.3,0.3,71,0 c5.3-0.1,6.3,1.7,6.2,6.5c-0.2,19.5-0.1,39-0.1,58.5c0,1.8,0,3.6,0,5.9c8.2,0,15.9,0,24.3,0c0-23.3,0-46.7,0-70.4 c2.2-0.1,3.9-0.3,5.5-0.3c24.2,0,48.3,0.1,72.5-0.1c3.9,0,5.5,0.7,5.5,5.2C191,68.4,191,131.5,191,194.7 C191,196,190.9,197.3,190.8,199.2z"></path><path class="st0" d="M306.1,0.6c0,2.2,0,4.1,0,6.1c0,46,0,92,0,138c0,5.5,0.4,11,0.9,16.4c0.7,6.3,3.3,8.2,10.2,8.3 c7.7,0.1,10.7-1.9,11.4-8.2c0.7-6.4,1-13,1.1-19.4c0.1-45,0-90,0-135c0-2,0-3.9,0-6.3c2.1-0.1,3.7-0.3,5.3-0.3 c24.2,0,48.3,0.1,72.5-0.1c4.4,0,5.6,1.2,5.6,5.6c-0.2,45.8-0.1,91.6-0.1,137.5c0,5.5-0.6,11-1.1,16.4c-1.2,12-8.6,19.9-17.7,26.6 c-13.1,9.7-28.4,14-44.2,15.8c-27.6,3.3-55.2,2.9-82.2-4.8c-11.9-3.4-23.3-8-32.5-16.8c-7.5-7.2-11.4-15.9-11.5-26.2 c-0.4-30.1-0.7-60.3-0.9-90.4c-0.1-19.7,0-39.3-0.1-59c0-2.9,0.3-4.7,3.9-4.7c25.7,0.1,51.3,0.1,77,0.1 C304.3,0.2,304.8,0.4,306.1,0.6z"></path><path class="st0" d="M578.6,0.1H450.7c-6.6,0-6.6,0-6.6,6.5v192.5h83.4v-82.8h50.9V78h-51.1c0-11.2,0.2-21.8-0.1-32.4 c-0.1-4.2,1.5-5,5.2-5c15.5,0.2,31,0.1,46.5,0.1c1.9,0,3.8-0.2,6.1-0.4V6.7C585,0.1,585,0.1,578.6,0.1z M459.9,9.5h4.7 c0.2,1.4,0.1,2.8,0.6,3.9c0.5,0.9,1.8,2,2.7,2c1.2,0,3.1-0.6,3.6-1.5c0.9-1.7-0.1-5.1,3.3-4.1c1.4,0.4,2.1,3.1,3.5,5.4h5.4 c0.2-2.1,0.4-3.9,0.6-6.1h5.3v15.5h-29.7V9.5z M470.7,37.3c-2.3,0-4.6-0.1-6.9,0c-2.6,0.1-4.5,0-4.5-3.6c0-3.4,1.4-4.2,4.5-4.2 c8.5,0.2,16.9,0,25.3,0c4,11.2-6.6,9.1-11.6,13.4h12v7.7h-29.2c-1.9-6.2-1.5-7.1,4.1-9.3c2.2-0.9,4.5-1.8,6.7-2.7 C471,38.3,470.8,37.8,470.7,37.3z M459.4,73.3c0-6.5,1.8-7.8,8.2-5.5c5.3,1.9,10.5,4.1,16.1,6.3c0.3-2.4,0.5-4.4,0.8-6.7 c1.6-0.1,3.2-0.2,5.1-0.3v17.5c-8.6,0-15.6-5.7-23.9-7.2c-0.3,2-0.6,3.8-0.8,5.7c-3.8,1.5-5.6,0.4-5.4-3.8 C459.5,77.3,459.4,75.3,459.4,73.3z M459.4,63.8c0-2.5-0.2-4.5,0.1-6.4c0.2-1,1.4-2.5,2.2-2.5c9.2-0.2,18.5-0.1,27.8-0.1v9.1H459.4z  M468.7,91.1c6.8-1.3,13.6-2.5,20.8-3.9v8.1c-2,1.3-3.7,2.4-5.3,3.5c1.6,1.3,3.2,2.5,5.4,4.2v8.1c-9.5-1.5-18.6-2.8-27.5-4.4 c-1.1-0.2-2.4-2.2-2.6-3.4C458.3,93,458.4,93,468.7,91.1z M489.5,153.9v8.3c-9.5-1.5-18.2-2.7-26.8-4.3c-1.3-0.2-3-2.1-3.2-3.4 c-1.4-10.2-1-10.5,9-12.4c6.8-1.3,13.6-2.5,20.9-3.9v8c-1.9,1.5-3.6,2.8-5.2,4C485.8,151.3,487.4,152.4,489.5,153.9z M472.7,186 h16.7v7.7h-30.2c0.3-3.8-0.6-8.6,1.4-11.1c1.8-2.3,6.8-2.1,10.5-3.8c-2.2-0.5-4.3-1.3-6.5-1.3c-4.5,0-5.7-2.2-5.2-6.2 c0.2-2.1,0-4.2,0-6.6h30.1v7.4H472c-0.1,0.4-0.1,0.7-0.1,1.1c4.4,0.8,8.7,1.6,13.1,2.3c4.9,0.8,4.9,0.7,4.4,6.5 c-5.5,1-11.1,2-16.8,3.1C472.7,185.3,472.7,185.7,472.7,186z M482.2,135.1c-5.1,0.2-10.3,0.2-15.4,0c-6.1-0.3-8.8-5.2-7.8-13.5 c0.8-6.5,3.9-8.9,10.7-7.8v7.6c-2.2,0.7-4.2,1.3-6.6,2.1c4,3.4,18.7,3.5,23.7-0.2c-2.8-0.5-4.7-1.3-6.5-1.1 c-1.9,0.2-3.7,1.4-6.1,2.3v-10.9H489c0.5,4.4,1.2,8.5,1.4,12.7C490.6,131.2,487.2,134.9,482.2,135.1z"></path><path class="st0" d="M478.6,152.2c-3.4-0.6-6.4-1-10.3-1.6C476,147.4,478.6,147.8,478.6,152.2z"></path><path class="st0" d="M479.1,98c-0.2,1-0.4,2.1-0.5,3.1c-3.1-0.4-6.3-0.9-9.4-1.3v-1.2C472.5,98.2,476,96.9,479.1,98z"></path></svg>