<svg xmlns="http://www.w3.org/2000/svg" xmlns:xlink="http://www.w3.org/1999/xlink" id="Layer_1" x="0px" y="0px" viewBox="0 0 344.8 145.8" style="enable-background:new 0 0 344.8 145.8;" xml:space="preserve"><style type="text/css">	.st0{fill:#FFFFFF;}</style><g>	<path class="st0" d="M319.8,75.5c-13.8-3.8-27.7-7.1-41.5-10.7c-2.8-0.7-5.6-1.7-8.4-2.6c9.7-18.8,9.5-36-5.7-52.2  c20-7.7,39.6-9.4,58.7,1.4c9.5,5.4,13.5,14.7,15.1,25.2c0.3,1.9,1.7,3.7,2.6,5.6c0.5-2,1.5-4.1,1.3-6.1  c-1.8-19-15.5-32.5-35.6-35.3c-1.5-0.2-2.9-0.6-4.4-0.9h-18c-5,1.2-10.2,1.8-14.9,3.9c-6.3,2.7-12.1,4.5-18.7,1.2  c-2.1-1.1-4.9-1.2-7.3-1.2c-21.3-0.3-42.6-0.5-63.9-0.7c-0.6,0-1.3,0.2-2.7,0.5v77.2c-1.7-1.3-2.3-2.6-2.8-4  c-9.1-23-18.2-46.1-27.4-69c-0.7-1.8-2.4-4-4.2-4.6c-3.4-1.1-3.8,2.4-4.7,4.5c-9.6,23.4-19,46.8-28.5,70.2  c-0.6,1.6-1.4,3.1-2.1,4.7c-0.8-15.6-0.8-30.9-0.8-46.2c0-9.8,0.1-19.7-0.1-29.5c0-1.4-1.3-2.8-2.1-4.2c-0.6,0.2-1.3,0.5-1.9,0.7  v5.3c0,23.5-0.9,47,0.3,70.4c0.8,15.8-6.1,28.5-11.4,42.8c-1.3-1.8-2.3-3.1-3.3-4.4C61.3,81.1,35.2,44.5,9.3,7.8  C6.8,4.3,4.3,2.4,0,3v139.9c3.8,0,4.1-2.4,4.1-5.6c-0.1-40.8,0-81.6,0-122.4V8.4C6,11,7,12.3,8,13.7c24.5,34.4,48.8,69,73.7,103.2  c5.2,7.2,7.9,13.3,2.5,21.2c-0.7,1-0.9,2.4-1.3,3.6c3.5,1.8,4.7-0.1,5.7-2.7c0.9-2.4,2-4.7,2.9-6.9c5.3,2.9,5.2,12.6,14.5,9.6V97.1  h70.7v19.1c0,7.8-0.1,15.7,0.1,23.5c0,0.9,1.3,1.7,2,2.6c0.6-0.8,1.6-1.6,1.7-2.5c0.3-1.6,0.1-3.3,0.1-5v-25.5  c1.6,1.1,2.2,2.3,2.7,3.5c3.5,8.8,7.1,17.6,10.6,26.4c1,2.6,2.2,4.4,5.2,2.4c-0.1-0.5,0-0.9-0.1-1.2c-4.8-12.1-9.3-24.2-14.4-36.1  c-3.1-7.2-4.3-14.5-4-22.3c0.2-3.6,1-4.9,4.8-4.8c9.3,0.3,18.7,0,28,0.1c10.6,0.1,21.3,0,31.9,0.9c14.1,1.2,22.1,8.5,23.8,22.5  c1.5,12.2,1.5,24.5,2.2,37.2c-19.5-7.2-25.5-22.9-27.1-42.1c-1.7,1.3-2.9,2.7-2.9,4c0.1,22.1,12.4,37.9,34,43.4  c4.5,1.1,9.1,1.8,13.7,2.6h12c5-1,10.1-1.5,15-2.9c14.2-4,24.6-12.3,28.9-27v-16C341.7,86.3,332.4,79,319.8,75.5z M101.5,137.4  c-2.9-4-5.1-6.9-7.1-9.8c-0.4-0.6-0.6-1.7-0.3-2.3c2.1-5.5,4.4-10.9,7.4-16V137.4z M107.3,92.5c11.4-28.3,22.7-56.2,34.4-85.4  c11.4,29.3,22.2,57.2,33.2,85.4H107.3z M260,13.2c14.1,9.8,16.6,34.1,5,46.6C246.5,52.1,243.6,26.7,260,13.2z M240.9,72.4  C221,73,201,72.6,180.8,72.6c-0.1-1.3-0.3-2.5-0.3-3.8c0-18.8,0.1-37.6-0.1-56.4c0-4.1,1.2-5.3,5.3-5.3C202,7.3,218.3,7,234.6,7.3  c6.7,0.2,13.4,1.5,21.3,2.5c-16,17.3-13.7,43.8,5.6,53.8C255.6,69,248.5,72.2,240.9,72.4z M326.3,133.9c-15,8.9-31.3,9.3-47.9,5.8  c-1.2-0.2-2.7-2.4-2.9-3.8c-0.7-6.6-1.1-13.3-1.5-19.9c-0.4-5.8-0.4-11.7-1.1-17.4c-1.5-11.5-7.7-19.2-19.3-22.1  c-1.6-0.4-3.2-0.9-4.8-1.3c5.4-3,10.5-5.9,15.8-8.7c0.9-0.5,2.2-0.8,3.2-0.5c15.2,3.8,30.3,7.6,45.4,11.5c3.2,0.8,6.3,2,9.4,3.3  c10.8,4.6,17.6,12.2,18.3,24.5C341.7,117.8,337,127.5,326.3,133.9z"></path></g></svg>