<svg xmlns="http://www.w3.org/2000/svg" xmlns:xlink="http://www.w3.org/1999/xlink" id="Layer_1" x="0px" y="0px" viewBox="0 0 100.4 48.6" style="enable-background:new 0 0 100.4 48.6;" xml:space="preserve"><style type="text/css">	.st0{fill-rule:evenodd;clip-rule:evenodd;fill:#FFFFFF;}</style><g>	<g>		<path class="st0" d="M51.2,14.8c0.2-0.2,0.4-0.1,0.7-0.1c0.6,0.1,0.3-0.1,0.7,0.4c0.4,0.3,0.4-0.1,0.9,0.2   c0.6,0.5,0.6,0.3,1.3,0.4v0.1l-0.1,0.1l-0.1,0L54.4,16l-0.1,0l-0.1,0c-0.3-0.2-0.6-0.2-0.9-0.1v-0.1l0-0.1l-0.3-0.3L53,15.5   l-0.1,0h-0.1l-0.1,0l-0.2,0l-0.2-0.1L52,15.1l-0.2-0.1l-0.2-0.1h-0.3l-0.1,0h-0.1L51.2,14.8L51.2,14.8"></path>		<path class="st0" d="M67.2,31l-0.1-0.2l0-0.2l0-0.2l0-0.1H53.9l1.5,1.3l0.1,0.1l0.1,0.1l0.1,0.1l0.1,0.1c0.3,0.3,0.5,0.7,0.6,1.2   l0,0.2l-0.1,0.1l-0.1,0.1l-0.1,0.2l-0.1,0.4l-0.1,0.6c0,0.4,0.1,1.2-0.4,1.4L55.6,36h0c0,1.1-0.4,2.2-1.1,3.1   c-0.4,0.4-0.4,0.8-0.2,1.2c-0.2,0.2-0.6,1.5-0.5,1.7l0.1,0.2l0.1,0.2l0.1,0.2l0.2,0.1l0.2,0.1l0.2,0l0.2,0l0.1-0.1l0-0.1l-0.1-0.1   l-0.1-0.1l-0.1-0.1l0.1-0.1l0.2-0.2l0.4-0.2l0.2-0.2l0.1-0.2l-0.1-0.2l-0.1,0h0.1l0.1-0.1l0.2-0.1l0.2-0.1l0.2-0.2l0.2-0.3   l0.2-0.4l0.2-0.5l0.3,0l0.2,0l0.2-0.1l0.2-0.1l0.2-0.2l0.3-0.2l0.4-0.1l0.6-0.2l0.2-0.1l0.1-0.1l0.1-0.1l0.1-0.1l0-0.1l0-0.1   c-0.1-0.7,0.1-0.4,0.8-0.8c1.3-0.9,2-1.5,2.8-2.9l0.1-0.2l0.2-0.2l0.2-0.2l0.3-0.2l0.4-0.2l0.3-0.1h0.4l0.2,0h0.1l0.1-0.1l0.1-0.1   l0.3-0.4l0.2-0.3c0.3-0.5,0.2-0.9,0.7-1.4l0.1-0.1l0.1-0.1l0.1-0.1l0.1-0.1l0.1-0.1L67.2,31L67.2,31z"></path>		<polygon class="st0" points="57.9,16.7 57.9,16.8 57.8,16.9 57.6,16.9 57.5,16.6 57.6,16.6 57.7,16.7 57.8,16.7   "></polygon>		<path class="st0" d="M56.8,16.5c-0.5,0.1-1,0.1-1.4,0.3c-0.1-0.3-0.2-0.2-0.5-0.2l0.1-0.1l0-0.1V16C55.8,15.7,56.3,16.4,56.8,16.5   z"></path>		<path class="st0" d="M73.3,31.5c-7.5,22.4-37.7,23-45.2,0.2C36.1,52,65.6,51.8,73.3,31.5z"></path>		<path class="st0" d="M73.4,17.1C70.2,7,61.5,0,50.7,0C39.4,0,31.6,6.4,28.1,16.9c2.8-7.4,8.5-12,14.9-14.1   c-0.1,0.2-0.2,0.4-0.2,0.4c-0.1,0.2-0.2,0.5-0.4,0.7c-0.6,0.3-0.8,1.1-1.1,1.7l-0.1,0.2v0.1l0,0v0.2c-0.2,0.7-1,1.3-1.4,2   l-0.2,0.4L39.6,9l-0.1,0.4l-0.1,0.3l0,0.2l0,0.1c0.5,0.9,0.6,1.9,0.4,2.9v0l0,0l0.1,0.1l0.1,0.1l0.1,0.2l0.1,0.2l0.1,0.3l0.1,0.3   l0.1,0.3l0.1,0.3l0.1,0.1l0.1,0c0.6-0.8-0.5-2.3-0.3-3.2h0.1l0.1-0.1l0.1,0c0.1,1.5,0.9,2.8,1.6,4l-0.1,0.1l-0.2,0.2v0.2l0.3,0.1   l-0.2,0.4h0.2l0.1,0h0.1l0.1,0.1l0.2,0.1l0.1,0.1l0.1,0.1l0.2,0.2l0.3,0.2l0.1,0l0.1,0h4.7c0.2-0.6,0.3-1.3,0.7-1.8h0l-0.1-0.1   h-0.5l-0.1,0l-0.1-0.1l-0.1-0.1h-0.1c-0.2,0.1-0.4,0.8-0.6,1c-0.2,0.5-1.2,0.5-1.6,0.5c-0.4,0.1-0.3,0-0.6-0.3   c-0.1-0.3-0.3-0.5-0.4-0.7c-0.8-1.7,0.9-4.3,2.9-3.4c1.1-0.8,1.3,0,2.2-0.4l0.4-0.1l0.3,0.1l0.2,0.2l0.1,0.3l0.1,0.4l0.2,0.4   l0.2,0.3l0.4,0.2l0.1-0.5l-0.1-0.4l-0.1-0.4l-0.3-0.7l-0.1-0.3l0.1-0.3l0.3-0.3c0.5-0.3,1.4-0.8,1.6-1.3l0.2-0.3L53.7,9l0.2-0.5   L54,8.3l0.1-0.2l0.1-0.1L54.3,8l0.2-0.1l0.2-0.2l0.1-0.2l0.1-0.2l0-0.2V7.1l0-0.1v0h0.1L55,7l0.1,0h0.2l0.2,0L55.8,7l0.3-0.1   l0.2-0.2l-0.2-0.1l-0.2-0.1l-0.2-0.1l-0.2-0.1l-0.2-0.1L55.3,6V5.7l0.2-0.2h0.2l0.3,0l0.4,0.1l0.4,0.1h0.4l0.3-0.1l0.2-0.3   c-1-0.4-1.6-1.1-2.5-1.5L55,3.9L54.8,4h-0.3l-0.2,0l-0.1-0.1l-0.2-0.1l-0.2-0.2c-0.8-0.7-1,0-1.5-0.5l-0.1,0.3v0.4l0.1,0.1L52.5,4   l0.2,0l0.1,0.1l0.1,0.1L53,4.3v0.1l-0.1,0l-0.2,0l-0.2,0l-0.2,0.1l-0.1,0.2v0.5l0,0.2l-0.1,0.1l-0.1,0.1l-0.1,0l-0.2-0.1   c-0.7-0.4-0.2-0.6-0.9-0.9c-0.5-0.3-1.5-0.1-2-0.6l0.1-0.1l0.1-0.2l0.2-0.1l0.2-0.2l0.3-0.2L50.1,3l0.3-0.2l0.4-0.2   c1.2-0.6,2.7-0.8,4.1-0.6c0,0-0.1-0.1-0.3-0.1C62.6,3.1,70.1,8.2,73.4,17.1z"></path>		<path class="st0" d="M9.9,19.3H6.2l0.6,0.7v5.3l-0.1,0.3l-0.2,0.3c-0.3,0.4-1,0.6-1.5,0.6l-0.4,0l-0.3-0.1l-0.3-0.1L3.6,26   l-0.2-0.2l-0.2-0.3l-0.1-0.3v-5.3l0.6-0.7H0l0.6,0.7c0.3,4.9-1.6,8.3,4.4,8.3c6-0.1,4-3.4,4.4-8.3L9.9,19.3z"></path>		<polygon class="st0" points="22.8,19.3 19.7,19.3 20.3,19.9 20.3,24.4 15.8,19.3 13,19.3 13.5,19.9 13.5,27.5 13,28.1 16.1,28.1    15.5,27.5 15.5,22.9 20.3,28.1 22.3,28.1 22.3,19.9   "></polygon>		<polygon class="st0" points="30.1,28.1 29.5,27.5 29.5,19.9 30.1,19.3 26.3,19.3 26.9,19.9 26.9,27.5 26.3,28.1   "></polygon>		<polygon class="st0" points="42.4,19.3 39.3,19.3 39.8,19.9 37.6,24.8 35.5,19.9 36,19.3 32.3,19.3 36.4,28.1 38.2,28.1   "></polygon>		<polygon class="st0" points="52.9,28.1 52.9,25.7 52.2,26.3 47.8,26.3 47.8,24.6 50.6,24.6 51.3,25.1 51.3,22.3 50.6,22.8    47.8,22.8 47.8,21.1 52.2,21.1 52.9,21.7 52.9,19.3 44.6,19.3 45.2,19.9 45.2,27.5 44.6,28.1   "></polygon>		<path class="st0" d="M65.6,28.1l-2.4-3.5c1.2-0.5,2-1.3,2-2.7l0-0.6L65,20.9l-0.2-0.5l-0.3-0.4l-0.5-0.3l-0.6-0.3l-0.7-0.2   l-0.9-0.1h-5.5l0.6,0.7v7.5l-0.6,0.6H60l-0.6-0.6V25h1.1l1.7,2.5l-0.6,0.6H65.6z M59.4,23.3v-2.2h2.2l0.2,0.1l0.2,0.1   c0.4,0.2,0.5,0.5,0.5,0.9C62.4,23.6,60.3,23.4,59.4,23.3z"></path>		<path class="st0" d="M76.8,25.5c0-1.9-2.1-2.5-3.6-3c-0.5,0-2.5-0.7-1.4-1.5c1-0.5,3.6,0.4,4.5,0.8v-3l-0.7,0.7   c-1.8-0.7-4.3-1-6,0.2c-0.5,0.4-0.9,1-0.9,1.7c-0.1,1.7,1.4,2.5,2.8,3l0.5,0.2l0.5,0.1l0.4,0.1l0.4,0.1l0.3,0.1l0.2,0.2l0.2,0.2   l0.1,0.3c0,0.5-0.7,0.7-1.1,0.7c-1.4-0.1-2.9-0.5-4.1-1.3v3.3l0.7-0.8C71.7,28.5,76.7,29.2,76.8,25.5z"></path>		<path class="st0" d="M89.9,28.1l-4.3-8.8h-3l0.3,0.7L79,28.1h3.2l-0.6-0.6l0.5-0.9h4.2l0.4,0.9l-0.6,0.6H89.9z M82.8,24.9l1.5-3.2   l1.5,3.2H82.8z"></path>		<polygon class="st0" points="100.4,28.1 100.4,25.7 99.7,26.3 95.5,26.3 95.5,19.9 96,19.3 92.3,19.3 92.9,19.9 92.9,27.5    92.3,28.1   "></polygon>		<path class="st0" d="M99.6,20.1L99.6,20.1l-0.2-0.1l-0.1,0h-0.1l-0.2,0l-0.2,0.1l-0.1,0.2l-0.1,0.3l0.1,0.3l0.1,0.2l0.2,0.2   l0.2,0.1l0.1-0.1h0.1l0.1-0.1l0.1-0.1v-0.2l-0.1,0.1L99.4,21l-0.1,0l-0.1,0L99,21l-0.2-0.1l-0.2-0.4c0.1-0.6,0.6-0.7,0.9-0.3V20.1   z"></path>		<path class="st0" d="M97.9,20.5c0,1.6,2.4,1.7,2.5,0C100.3,18.9,97.9,19,97.9,20.5z M98,20.5c0.1-1.4,2.2-1.4,2.2,0   C100.2,22,98.1,22,98,20.5z"></path>	</g></g></svg>