<svg xmlns="http://www.w3.org/2000/svg" xmlns:xlink="http://www.w3.org/1999/xlink" id="Layer_1" x="0px" y="0px" viewBox="0 0 558.9 80" style="enable-background:new 0 0 558.9 80;" xml:space="preserve"><style type="text/css">	.st0{fill:#FFFFFF;}</style><g>	<path class="st0" d="M474.7,0c16.9,0,33.9,0,50.8,0c20,0,33,12.7,33.3,32.7c0.2,14.6,0,29.2,0.1,43.7c0,2.7-1,3.5-3.6,3.5  c-36-0.1-72.1,0-108.1-0.1c-16.2,0-29.9-13.2-30.3-29.3c-0.4-16-0.1-32-0.2-48.1c0-2.8,1.7-2.5,3.5-2.5C438.4,0,456.5,0,474.7,0z   M470.5,48.9c0-12.9-9.8-22.5-23-22.5c-12.4,0-22.1,10.1-22.1,22.8c0,12.3,9.9,22.2,22.4,22.2C460.5,71.4,470.5,61.6,470.5,48.9z   M516.2,56.9c0.4-0.1,0.7-0.2,1.1-0.2c6.9,0,13.7,0,20.6,0c3.9,0,4.2-0.3,4-4.2c-0.5-9.2-7.1-15.6-16.6-16  c-9.1-0.4-16.8,5.6-17.9,13.9c-1.4,10.3,3.7,18.3,12.9,20.3c6.2,1.4,11.8,0.3,16.5-4.1c0.7-0.7,1.3-2.3,1-3  c-1.3-2.5-4.9-3.1-7.4-1.5C524.9,65.5,517.3,62.9,516.2,56.9z M481.6,39.9c0-3.8-2.6-2.9-4.6-2.9c-4.1,0-4.1,0-4.1,4  c0,8.1,0,16.2,0,24.3c0,6.1-0.4,5.2,5.5,5.5c2.8,0.1,3.5-1,3.5-3.6c-0.1-4.7-0.1-9.4,0-14.2c0-1.3,0.1-2.7,0.5-3.9  c1.2-3.3,4.5-5.2,8.1-4.8c3,0.3,5.1,2.4,5.3,6.1c0.4,4.8,0.2,9.6,0.3,14.4c0.1,6.4-1.4,5.8,6.3,5.7c0.8,0,2.1-1.4,2.1-2.1  c0-7,0.2-14-0.4-20.9c-0.5-6.8-4.7-10.5-11.4-11.1C488.7,36.2,485,37,481.6,39.9z"></path>	<path class="st0" d="M274.4,39.1c6-4,11.9-3.6,17.8,1.8c3.1-3.1,7-4.6,11.3-4.4c6.7,0.3,11.1,4.7,11.5,12c0.3,6.7,0.2,13.3,0.1,20  c0,0.7-1.3,2-2.1,2.1c-6.3,0.7-6.3,0.6-6.3-5.7c0-4.7,0-9.4-0.2-14.2c-0.1-3.9-1.8-5.8-4.8-6c-3.6-0.2-6.8,1.9-7,5.4  c-0.4,5.5-0.2,11.1-0.4,16.6c0,1.3-0.5,3.5-1.1,3.6c-2.2,0.4-4.5,0.2-6.7-0.1c-0.4-0.1-0.7-1.8-0.7-2.8c-0.1-5.2,0-10.5-0.1-15.7  c0-4.8-1.9-7.1-5.4-7.1c-4,0-6.6,2.8-6.7,7.2c-0.1,5.1-0.1,10.3,0,15.4c0.1,2.5-0.7,3.5-3.3,3.4c-6.4-0.2-5.6,0.4-5.6-5.6  c0-7.6,0-15.2,0-22.8c0-5.5,0-5.6,5.6-5.3C271.4,37.1,272.6,38.2,274.4,39.1z"></path>	<path class="st0" d="M199.9,40.1c-0.8-3.6,1.5-3.1,3.3-3.1c5.1,0,5.1,0,5.1,5c0,7.8,0,15.6,0,23.4c0,5.5,0,5.4-5.6,5.4  c-1.9,0-3.3-0.3-2.8-3.1c-4.9,3.7-10,4.4-15.4,2.9c-3.6-1-6.4-3-8.6-6.1c-4.7-6.9-4.1-17.3,1.4-23.1  C182.7,35.6,191.5,34.9,199.9,40.1z M181.2,53.4c0,5.7,3.8,9.8,9.1,9.8c5,0,9.3-4.3,9.4-9.5c0.1-5.2-4-9.5-9.2-9.6  C185.1,44.1,181.3,47.9,181.2,53.4z"></path>	<path class="st0" d="M101.7,56.7c1.3,6.2,8.7,8.8,14.2,5.3c2.6-1.6,5.8-1.1,7.4,1.4c0.4,0.6-0.2,2.3-0.8,3  c-4.4,4.8-12.7,6.1-19.4,3.3c-8.2-3.4-12.2-11.8-9.9-20.8c2-8.1,9.9-13.3,18.5-12.4c9.5,1,15.2,7,15.8,16.2c0.2,3.5-0.2,4-3.6,4  C116.5,56.7,109.2,56.7,101.7,56.7z M117.8,49.8c-1-4-4.3-6.3-8.3-6.1c-4,0.3-6.7,2.5-7.3,6.1C107.3,49.8,112.4,49.8,117.8,49.8z"></path>	<path class="st0" d="M328.2,56.7c0.9,6.1,8.7,9,14.1,5.2c2.2-1.5,3.6-1.5,5.6,0c2.9,2.3,3,2.8,0.3,5.3c-5.7,5-15.4,5.4-22.1,0.8  c-6.4-4.4-9-13.3-6-20.8c2.8-7.2,10.4-11.6,18.3-10.6c9.4,1.2,15.4,7.7,15.5,16.8c0,2.4-0.7,3.5-3.4,3.4  C343.1,56.6,335.7,56.7,328.2,56.7z M328.3,49.9c5,0,9.7,0,14.4,0c0.5,0,1-0.1,1.5-0.1c-0.8-3.7-3.4-5.8-7.4-6  C333,43.5,329.8,45.7,328.3,49.9z"></path>	<path class="st0" d="M9,56.8c1.5,6.2,8.9,8.7,14.4,5.1c2.4-1.6,6.1-0.9,7.4,1.6c0.3,0.6-0.1,2-0.6,2.6c-5.2,5.1-11.4,6.2-18.1,4.1  C5.1,68.1,0.8,63.5,0.1,56.1C-0.7,47.2,3,40.6,10.4,37.8c7.8-3,16.3-0.8,21.1,5.4c2.6,3.4,3.4,7.4,3.2,11.6c-0.1,2.2-1.6,2-3,2  c-7.1,0-14.2,0-21.2,0C10,56.7,9.6,56.8,9,56.8z M25.4,49.8c-1.6-4.2-4.8-6.3-8.6-6c-3.8,0.3-6.5,2.5-7.2,6  C14.7,49.8,19.9,49.8,25.4,49.8z"></path>	<path class="st0" d="M47.8,38.8c2-0.6,4.7-1.8,7.4-2.2C63,35.5,69,39.9,69.7,47.7c0.6,6.8,0.4,13.7,0.5,20.6c0,1.6-0.6,2.5-2.4,2.4  c-1.8-0.1-3.7,0-5.9,0c-0.2-1.4-0.4-2.7-0.4-3.9c0-4.8,0-9.6,0-14.5c0-5.2-2-7.8-6.1-8c-4.4-0.2-7.7,2.6-8.1,7.5  c-0.4,4.9-0.1,9.8-0.2,14.8c0,1.2,0,2.4,0,4.1c-2.5,0-4.8,0.2-6.9-0.1c-0.7-0.1-1.7-1.4-1.7-2.2c-0.1-9.6-0.1-19.3-0.1-28.9  c0-1.9,0.8-2.6,2.6-2.4c0.9,0.1,1.9-0.2,2.8,0.1C45.1,37.4,46.3,38.1,47.8,38.8z"></path>	<path class="st0" d="M236.9,39c2.8-0.8,5.3-2,8-2.4c8.1-1.2,14.2,3.7,14.7,11.9c0.3,6.7,0.2,13.3,0,20c0,0.7-1.3,2-2.1,2.1  c-6.3,0.6-6.3,0.6-6.3-5.8c0-4.4,0.1-8.8,0-13.2c-0.1-4.5-2.1-6.9-5.5-7.3c-4-0.4-7.8,1.9-8.2,6.1c-0.6,5.3-0.3,10.6-0.5,16  c-0.1,1.4-0.4,3.9-0.9,4c-2.3,0.4-4.7,0.2-7,0c-0.3,0-0.7-1.4-0.7-2.1c-0.1-9.5,0-19.1-0.1-28.6c0-2.1,0.9-2.9,2.8-2.6  C233.1,37.4,236.3,35.3,236.9,39z"></path>	<path class="st0" d="M366.3,39.9c4.5-3.7,9.2-4,14.1-2.9c4.9,1.2,8.4,5.6,8.6,11.8c0.3,6.6,0.2,13.1,0,19.7c0,0.7-1.3,2-2.1,2.1  c-6.3,0.7-6.2,0.6-6.3-5.8c0-4.6,0-9.2-0.2-13.8c-0.2-4.2-2.3-6.4-5.8-6.7c-3.9-0.3-7.4,1.9-7.9,5.8c-0.6,5.4-0.4,10.8-0.6,16.3  c-0.1,1.4-0.4,3.9-0.9,4c-2.3,0.4-4.7,0.2-7,0c-0.3,0-0.7-1.2-0.7-1.8c0-9.7,0-19.5-0.1-29.2c0-1.8,0.8-2.6,2.4-2.3  C362.2,37.5,365.7,35.1,366.3,39.9z"></path>	<path class="st0" d="M83.1,30.1c0.1,2.5,0.2,4.5,0.3,6.3c2.3,1.9,7.2-2.1,7.2,4.2c0,6.2-4.9,2.4-7.3,4.2c0,5-0.1,10.3,0,15.6  c0.1,2.7,2.1,3.7,4.5,3.5c2.1-0.1,3.1,0.4,2.9,2.7c-0.1,2.1,0.6,4.4-2.9,4.5c-8.5,0.3-13.1-2.7-13.1-11.4c0-8.3,0.1-16.6-0.1-24.9  c-0.1-3,0.8-4.4,3.8-4.4C80,30.4,81.4,30.2,83.1,30.1z"></path>	<path class="st0" d="M163.5,36.4c2.6,1.6,7.4-2,7.3,4.3c-0.1,6.1-4.8,2.1-7.2,4.3c0,4.8-0.2,10.2,0.1,15.6c0.1,2.7,2.3,3.5,4.7,3.3  c2.1-0.2,2.8,0.6,2.6,2.6c-0.2,1.8,1.1,4.1-2.4,4.5c-8.5,1-13.5-3.1-13.5-11.6c0-8.6-0.1-17.2,0.1-25.8c0-1,0.8-2.7,1.5-2.8  c2.1-0.4,4.4-0.3,6.6-0.3c0.2,0,0.4,1.1,0.4,1.7C163.5,33.7,163.5,35.1,163.5,36.4z"></path>	<path class="st0" d="M402.5,36.7c2.4,0.3,4.5,0.3,6.5,1c0.5,0.2,0.5,2.4,0.5,3.7c0,5.7-4.8,1.3-6.9,3.7c0,4.9-0.1,10.3,0.1,15.7  c0.1,2.6,2.2,3.4,4.4,3.2c3.5-0.3,2.7,2.1,3,4c0.4,2.4-0.9,3.1-2.9,3.2c-8.3,0.3-13-2.4-13.1-11.4c0-8.6,0-17.2,0-25.8  c0-3.1,1.1-3.7,6.1-3.8c2.9-0.1,2.3,1.9,2.4,3.5C402.5,34.6,402.5,35.6,402.5,36.7z"></path>	<path class="st0" d="M151.2,44.2c-1.4,0-2.2,0-3,0c-5.4,0-8.6,3.1-8.7,8.6c-0.1,5-0.1,10.1,0,15.1c0.1,2.2-0.7,3-2.8,2.8  c-0.7-0.1-1.4-0.1-2.2,0c-2.7,0.4-3.6-0.7-3.5-3.4c0.2-8.9,0-17.9,0.1-26.8c0-1.2,1.1-3.4,1.4-3.3c2.3,0.3,5.5-1.9,6.6,1.4  c2.9-0.8,5.8-1.7,8.7-2.2c2.3-0.4,3.7,0.6,3.4,3.3C151,41,151.2,42.5,151.2,44.2z"></path>	<path class="st0" d="M213.9,54c0-4.7,0.1-9.4,0-14.2c0-2.1,0.7-2.8,2.9-2.9c5.8,0,5.8-0.1,5.8,5.6c0,8.1-0.1,16.2,0,24.3  c0,2.8-0.7,4.1-3.8,3.9c-4.9-0.2-4.9-0.1-4.9-5.1C213.9,61.8,213.9,57.9,213.9,54z"></path>	<path class="st0" d="M223.3,29.3c-0.1,2.8-2.4,4.8-5.4,4.6c-3-0.1-4.9-2-4.9-4.8c0-2.8,2.2-4.9,5.2-4.9  C221.2,24.3,223.3,26.5,223.3,29.3z"></path>	<path class="st0" d="M461.3,49c0,7.8-5.9,13.7-13.6,13.7c-7.7,0-13.4-6-13.3-13.9c0.1-7.7,5.8-13.5,13.4-13.6  C455.4,35.1,461.4,41.2,461.3,49z"></path>	<path class="st0" d="M516.6,49.8c1-3.9,3.9-6,7.9-6c3.8,0,6.8,2.3,7.8,6C527.1,49.8,522,49.8,516.6,49.8z"></path></g></svg>