<svg xmlns="http://www.w3.org/2000/svg" xmlns:xlink="http://www.w3.org/1999/xlink" id="Layer_1" x="0px" y="0px" viewBox="0 0 1276.2 102.9" style="enable-background:new 0 0 1276.2 102.9;" xml:space="preserve"><g>	<path d="M9.8,90.9V2.5H0v98h47.5v-9.6H9.8z"></path>	<path d="M119.4,2.5h-2.3l-46.4,98h10.9l14.8-31.2l4.8-10.5h0l0.9-1.9l16-33.6L134.5,58l0.3,0.7h0l4.8,10.4l15,31.3h10.5L119.4,2.5z  "></path>	<path d="M174.8,2.5V12h22.1v88.4h9.8V12h21.8V2.5H174.8z"></path>	<path d="M314,12V2.5h-55.9v98H314v-9.6h-46.1V52.3H314v-9.6h-46.1V12H314z"></path>	<path d="M362.5,37.7c-5.6-4.2-8.7-9.8-8.7-15.1c0-6.4,4.8-12.4,13.2-12.4c8,0,12.7,5,18,12l7.9-6.1c-6.4-8.7-13.6-16-25.6-16  c-13.2,0-23.7,9.4-23.7,22.9c0,7.4,3.7,15.1,8.3,18.8c22.2,18,32.3,24.2,32.3,34.9c0,9.1-7.9,16.6-18.2,16.6  c-7.5,0-14.6-5.5-20.5-16.2l-8.3,5c7.2,13.2,16.1,20.7,29.6,20.7c16,0,27.6-12.6,27.6-26.3C394.4,60.7,380.9,51.3,362.5,37.7z"></path>	<path d="M417.9,2.5V12H440v88.4h9.8V12h21.8V2.5H417.9z"></path>	<path d="M593.4,4.9c-4.8-1.8-12.4-2.5-22.6-2.5h-22.7v98h9.8V54.8h9.7c13.5,0,23.6-0.5,30.6-4.9c7-4.4,11.3-12.1,11.3-21.4  C609.5,17.5,603.3,8.7,593.4,4.9z M593.5,41.2c-4.4,3.6-10.9,4.1-19.4,4.1c-5,0-10.6,0.1-16.2,0V12h17.3c7.6,0,13.5,0.4,17.9,3.7  c3.7,2.9,6.1,7.8,6.1,12.8C599.2,33.4,596.9,38.5,593.5,41.2z"></path>	<path d="M670.1,54.8c16.2,0,26.1-4,31.1-14.2c2.2-4.4,2.9-7.2,2.9-12.1c0-11-6-19.8-16.1-23.6c-4.8-1.8-12.6-2.5-22.8-2.5h-22.5v98  h9.8V54.8h5.6l35.2,45.6h12.2L670.1,54.8z M652.5,45.3V12h20c14.7,0,21.3,7,21.3,16.5c0,5.1-2.3,9.8-5.9,12.7  c-4.2,3.4-10.8,4.2-19.2,4.2C663.5,45.4,658,45.3,652.5,45.3z"></path>	<path d="M784.9,0C756.7,0,734,22.6,734,51.8c0,27.4,21.6,51,51.7,51c29.1,0,51.6-22.7,51.6-51.4C837.3,22.2,814.6,0,784.9,0z   M785.4,93.3c-22.1,0-41.2-17.3-41.2-41.5c0-25.1,19.6-42.3,41.2-42.3c21.7,0,41.6,16.9,41.6,41.8  C827.1,75.9,808.4,93.3,785.4,93.3z"></path>	<path d="M895.2,2.5v69.3c0,7-0.4,12.6-3.6,16.8c-2.4,3.3-6.1,5.2-10.2,5.2c-5.9,0-12-3.8-19.2-9l-5.2,7.8  c7.5,6.3,14.7,10.2,24.4,10.2c7.1,0,13.5-2.5,17.5-6.8C904,90.2,905,82.3,905,72V2.5H895.2z"></path>	<path d="M997.2,12V2.5h-55.9v98h55.9v-9.6h-46.1V52.3h46.1v-9.6h-46.1V12H997.2z"></path>	<path d="M1080.7,93.7c-24.7,0-43.2-17.7-43.2-42c0-25,19.5-42.2,42.7-42.2c14.1,0,26.3,5.6,34.9,16.9l7.8-5.9  C1113.2,7.1,1098,0,1080,0c-30.4,0-52.8,22-52.8,50.9c0,28.8,20.1,51.8,52.8,51.8c17.9,0,32.8-6.7,42.8-19.4l-7.8-5.9  C1105.9,88.1,1094.3,93.7,1080.7,93.7z"></path>	<path d="M1147.1,2.5V12h22.1v88.4h9.8V12h21.8V2.5H1147.1z"></path>	<path d="M1244.3,37.7c-5.6-4.2-8.7-9.8-8.7-15.1c0-6.4,4.8-12.4,13.2-12.4c8.1,0,12.7,5,18,12l7.9-6.1c-6.4-8.7-13.7-16-25.7-16  c-13.2,0-23.8,9.4-23.8,22.9c0,7.4,3.7,15.1,8.3,18.8c22.2,18,32.3,24.2,32.3,34.9c0,9.1-7.9,16.6-18.2,16.6  c-7.5,0-14.6-5.5-20.5-16.2l-8.3,5c7.2,13.2,16.1,20.7,29.6,20.7c16,0,27.6-12.6,27.6-26.3C1276.2,60.7,1262.7,51.3,1244.3,37.7z"></path></g><rect x="780.4" y="-13.3" transform="matrix(0.7071 0.7071 -0.7071 0.7071 266.3565 -540.3016)" width="10" height="129.4"></rect></svg>